<?xml version="1.0" encoding="utf-8"?>
<!-- Generator: Adobe Illustrator 16.0.4, SVG Export Plug-In . SVG Version: 6.00 Build 0)  -->
<!DOCTYPE svg PUBLIC "-//W3C//DTD SVG 1.1//EN" "http://www.w3.org/Graphics/SVG/1.1/DTD/svg11.dtd">
<svg version="1.1" id="Layer_1" xmlns="http://www.w3.org/2000/svg" xmlns:xlink="http://www.w3.org/1999/xlink" x="0px" y="0px"
	 width="38px" height="38px" viewBox="0 0 112 83.992" enable-background="new 0 0 112 83.992" xml:space="preserve">
<path d="M112,10.407v35.177c0,0-7.257,1.479-8.75,1.676c-1.493,0.195-6.17,1.758-9.57-1.619
	c-5.231-5.208-23.834-24.393-23.834-24.393s-3.205-3.262-8.357-0.438c-4.704,2.577-11.682,6.346-14.631,7.835
	c-1.045,0.76-2.313,1.209-3.686,1.209c-3.557,0-6.439-2.992-6.439-6.684c0-2.893,1.774-5.35,4.254-6.279
	c6.709-4.21,20.685-12.35,26.519-15.565c3.562-1.96,6.127-2.128,11.013,2.133c6.021,5.259,11.373,10.042,11.373,10.042
	s2.506,1.199,4.531,0.905C98.658,13.781,112,10.407,112,10.407z M37.986,70.01c0.9-2.398,0.598-5.088-1.129-6.926
	c-1.553-1.656-3.812-2.092-5.974-1.578c0.603-2.217,0.271-4.578-1.292-6.248c-1.559-1.652-3.812-2.086-5.973-1.572
	c0.597-2.217,0.266-4.578-1.293-6.25c-2.445-2.604-6.674-2.49-9.45,0.259c-2.763,2.753-4.536,7.731-2.067,10.653
	c2.465,2.92,5.287,1.146,7.448,0.635c-0.597,2.217-2.397,4.283-0.187,7.187c2.207,2.912,5.287,1.148,7.447,0.632
	c-0.602,2.215-2.324,4.487-0.19,7.186c2.146,2.697,5.665,1.26,7.983,0.514c-0.896,2.395-2.813,4.965-0.35,7.868
	c2.459,2.901,8.148,1.55,10.93-1.199c2.776-2.749,3.039-7.103,0.603-9.707C42.812,69.674,40.301,69.258,37.986,70.01z
	 M88.604,51.617c-19.979-20.724-10.57-10.966-21.36-22.179c0,0-3.253-3.36-7.532-1.41c-3.005,1.367-6.874,3.229-9.791,4.648
	c-3.206,1.735-6.001,2.268-6.585,2.268c-6.183,0-11.2-5.199-11.2-11.61c0-4.158,2.129-7.779,5.301-9.833
	c4.461-3.201,14.737-8.876,14.737-8.876s-3.126-4.116-9.987-4.116c-6.854,0-21.172,9.739-21.172,9.739s-4.064,2.702-9.855,0.271
	L0,6.487V46.73c0,0,3.184,0.963,6.048,2.171c0.653-1.909,1.685-3.683,3.142-5.138c4.75-4.695,12.619-4.746,16.944-0.131
	c1.298,1.396,2.208,3.084,2.675,4.924c1.746,0.56,3.312,1.543,4.586,2.901c1.303,1.386,2.209,3.075,2.68,4.918
	c1.746,0.562,3.309,1.545,4.587,2.908c1.433,1.524,2.385,3.383,2.837,5.396c1.814,0.551,3.467,1.562,4.792,2.981
	c2.589,2.761,3.519,6.517,2.955,10.14c0,0.002,0,0.002,0,0.002l0,0c0,0.002,0,0.002,0,0.004c0.005,0.006,0.013,0.01,0.019,0.018
	c0.098,0.113,1.618,1.887,2.582,2.885c1.918,1.993,5.039,1.988,6.957,0c1.913-1.986,1.92-5.227,0-7.219
	c-0.062-0.064-0.137-0.11-0.201-0.171c0.002-0.015,0.01-0.03,0.012-0.044c-6.465-6.706-6.801-7.191-6.161-7.854
	c0.639-0.663,1.586,0.798,8.819,8.308c0.033,0.033,0.078,0.061,0.133,0.084c0.145,0.211,0.289,0.423,0.471,0.61
	c1.913,1.992,5.039,1.988,6.957,0c1.914-1.987,1.918-5.227,0-7.22c-0.102-0.105-0.216-0.186-0.323-0.28
	c-0.094-0.114-0.188-0.229-0.302-0.346c-6.6-6.841-7.35-8.144-6.846-8.666c0.574-0.597,3.648,2.903,10.215,9.712
	c0.014,0,0.027-0.004,0.043-0.004c1.924,1.818,4.914,1.773,6.775-0.155c1.791-1.858,1.887-4.803,0.322-6.807
	c-0.029-0.134-0.08-0.25-0.165-0.338c-8.311-8.63-7.956-8.759-7.452-9.281s0.541-0.558,8.629,7.832
	c0.03,0.034,0.051,0.076,0.084,0.11c1.914,1.992,5.041,1.988,6.959,0c1.912-1.987,1.918-5.228,0-7.221
	C88.717,51.707,88.657,51.669,88.604,51.617z"/>
</svg>
